<svg width="60" height="60" viewBox="0 0 60 60" fill="none" xmlns="http://www.w3.org/2000/svg">
<path d="M26.25 7.5C19.0237 7.5 13.125 13.3987 13.125 20.625C13.125 25.1438 15.4312 29.16 18.9262 31.5244C12.2381 34.3931 7.5 41.025 7.5 48.75H11.25C11.25 40.4438 17.9438 33.75 26.25 33.75C28.83 33.75 31.2263 34.4212 33.3375 35.5687C31.1776 38.2374 29.9994 41.5668 30 45C30 53.2613 36.7387 60 45 60C53.2613 60 60 53.2613 60 45C60 36.7387 53.2613 30 45 30C41.8406 30.0042 38.7636 31.0085 36.21 32.8688C35.3813 32.3494 34.485 31.9125 33.5738 31.5225C35.3582 30.319 36.8203 28.6962 37.8317 26.7963C38.8431 24.8964 39.373 22.7774 39.375 20.625C39.375 13.3987 33.4763 7.5 26.25 7.5ZM26.25 11.25C31.4494 11.25 35.625 15.4256 35.625 20.625C35.625 25.8244 31.4494 30 26.25 30C21.0506 30 16.875 25.8244 16.875 20.625C16.875 15.4256 21.0506 11.25 26.25 11.25ZM45 33.75C51.2362 33.75 56.25 38.7638 56.25 45C56.25 51.2362 51.2362 56.25 45 56.25C38.7638 56.25 33.75 51.2362 33.75 45C33.75 38.7638 38.7638 33.75 45 33.75ZM43.125 37.5V43.125H37.5V46.875H43.125V52.5H46.875V46.875H52.5V43.125H46.875V37.5H43.125Z" fill="#FFC108"/>
</svg>
