<svg width="40" height="40" viewBox="0 0 40 40" fill="none" xmlns="http://www.w3.org/2000/svg">
<path d="M20 38.3333C10.7383 36.275 3.33333 27.5367 3.33333 18.3333V8.33333L20 1.66667L36.6667 8.33333V18.3333C36.6667 27.54 29.2617 36.275 20 38.3333ZM6.66666 10V18.3333C6.76191 22.1869 8.11726 25.9031 10.5253 28.9131C12.9333 31.9231 16.2613 34.0612 20 35C23.7386 34.0612 27.0667 31.9231 29.4747 28.9131C31.8827 25.9031 33.2381 22.1869 33.3333 18.3333V10L20 5L6.66666 10Z" fill="#F2D17C"/>
<path d="M20 18.3333C22.3012 18.3333 24.1667 16.4679 24.1667 14.1667C24.1667 11.8655 22.3012 10 20 10C17.6988 10 15.8333 11.8655 15.8333 14.1667C15.8333 16.4679 17.6988 18.3333 20 18.3333Z" fill="#F2D17C"/>
<path d="M11.6667 25C12.4882 26.497 13.6927 27.7488 15.1569 28.6274C16.6211 29.5059 18.2925 29.9796 20 30C21.7075 29.9796 23.3789 29.5059 24.8431 28.6274C26.3074 27.7488 27.5119 26.497 28.3333 25C28.2917 21.84 22.7633 20 20 20C17.2217 20 11.7083 21.84 11.6667 25Z" fill="#F2D17C"/>
</svg>
