<svg width="61" height="60" viewBox="0 0 61 60" fill="none" xmlns="http://www.w3.org/2000/svg">
<path fill-rule="evenodd" clip-rule="evenodd" d="M35.5 7.5V8.225C42.73 10.375 48 17.0725 48 25V42.5H50.5V47.5H10.5V42.5H13V25C13.0002 21.2309 14.2168 17.5625 16.4689 14.5402C18.721 11.5179 21.8883 9.30304 25.5 8.225V7.5C25.5 6.17392 26.0268 4.90215 26.9645 3.96447C27.9021 3.02678 29.1739 2.5 30.5 2.5C31.8261 2.5 33.0979 3.02678 34.0355 3.96447C34.9732 4.90215 35.5 6.17392 35.5 7.5V7.5Z" fill="black"/>
<path fill-rule="evenodd" clip-rule="evenodd" d="M18 42.5H43V25C43 21.6848 41.683 18.5054 39.3388 16.1612C36.9946 13.817 33.8152 12.5 30.5 12.5C27.1848 12.5 24.0054 13.817 21.6612 16.1612C19.317 18.5054 18 21.6848 18 25V42.5ZM35.5 52.5V50H25.5V52.5C25.5 53.8261 26.0268 55.0979 26.9645 56.0355C27.9021 56.9732 29.1739 57.5 30.5 57.5C31.8261 57.5 33.0979 56.9732 34.0355 56.0355C34.9732 55.0979 35.5 53.8261 35.5 52.5Z" fill="black"/>
</svg>
