<svg width="61" height="60" viewBox="0 0 61 60" fill="none" xmlns="http://www.w3.org/2000/svg">
<g clip-path="url(#clip0_716_37)">
<path d="M24.8702 3.75C23.3784 3.75 21.9476 4.34263 20.8927 5.39752C19.8378 6.45242 19.2452 7.88316 19.2452 9.375V11.25H6.12021C4.62837 11.25 3.19763 11.8426 2.14273 12.8975C1.08784 13.9524 0.495209 15.3832 0.495209 16.875L0.495209 46.875C0.495209 48.3668 1.08784 49.7976 2.14273 50.8525C3.19763 51.9074 4.62837 52.5 6.12021 52.5H54.8702C56.3621 52.5 57.7928 51.9074 58.8477 50.8525C59.9026 49.7976 60.4952 48.3668 60.4952 46.875V16.875C60.4952 15.3832 59.9026 13.9524 58.8477 12.8975C57.7928 11.8426 56.3621 11.25 54.8702 11.25H41.7452V9.375C41.7452 7.88316 41.1526 6.45242 40.0977 5.39752C39.0428 4.34263 37.6121 3.75 36.1202 3.75H24.8702ZM24.8702 7.5H36.1202C36.6175 7.5 37.0944 7.69754 37.446 8.04918C37.7977 8.40081 37.9952 8.87772 37.9952 9.375V11.25H22.9952V9.375C22.9952 8.87772 23.1928 8.40081 23.5444 8.04918C23.896 7.69754 24.3729 7.5 24.8702 7.5V7.5ZM31.9427 33.4275L56.7452 26.8163V46.875C56.7452 47.3723 56.5477 47.8492 56.196 48.2008C55.8444 48.5525 55.3675 48.75 54.8702 48.75H6.12021C5.62293 48.75 5.14601 48.5525 4.79438 48.2008C4.44275 47.8492 4.24521 47.3723 4.24521 46.875V26.8125L29.0477 33.4275C29.9962 33.6801 30.9942 33.6801 31.9427 33.4275V33.4275Z" fill="black"/>
<path d="M6.12021 15H54.8702C55.3675 15 55.8444 15.1975 56.196 15.5492C56.5477 15.9008 56.7452 16.3777 56.7452 16.875V22.935L30.979 29.805C30.662 29.8896 30.3284 29.8896 30.0115 29.805L4.24521 22.935V16.875C4.24521 16.3777 4.44275 15.9008 4.79438 15.5492C5.14601 15.1975 5.62293 15 6.12021 15V15Z" fill="black"/>
</g>
<defs>
<clipPath id="clip0_716_37">
<rect width="60" height="60" fill="white" transform="translate(0.495209)"/>
</clipPath>
</defs>
</svg>
