<svg width="60" height="60" viewBox="0 0 60 60" fill="none" xmlns="http://www.w3.org/2000/svg">
<g clip-path="url(#clip0_702_7)">
<path d="M58.5926 20.625H51.5766L49.6266 15.75C47.6227 10.7379 42.8402 7.5 37.4414 7.5H22.5586C17.1609 7.5 12.3773 10.7379 10.3723 15.75L8.42227 20.625H1.40742C0.492189 20.625 -0.179296 21.4852 0.0433604 22.3723L0.746485 25.1848C0.902345 25.8105 1.46484 26.25 2.11055 26.25H4.4625C2.88867 27.6246 1.875 29.6227 1.875 31.875V37.5C1.875 39.3891 2.59688 41.0941 3.75 42.4137V48.75C3.75 50.8207 5.4293 52.5 7.5 52.5H11.25C13.3207 52.5 15 50.8207 15 48.75V45H45V48.75C45 50.8207 46.6793 52.5 48.75 52.5H52.5C54.5707 52.5 56.25 50.8207 56.25 48.75V42.4137C57.4031 41.0953 58.125 39.3902 58.125 37.5V31.875C58.125 29.6227 57.1113 27.6246 55.5387 26.25H57.8906C58.5363 26.25 59.0988 25.8105 59.2547 25.1848L59.9578 22.3723C60.1793 21.4852 59.5078 20.625 58.5926 20.625ZM17.3355 18.5355C18.1898 16.4004 20.2582 15 22.5586 15H37.4414C39.7418 15 41.8102 16.4004 42.6645 18.5355L45 24.375H15L17.3355 18.5355ZM11.25 37.4766C9 37.4766 7.5 35.9812 7.5 33.7383C7.5 31.4953 9 30 11.25 30C13.5 30 16.875 33.3645 16.875 35.6074C16.875 37.8504 13.5 37.4766 11.25 37.4766ZM48.75 37.4766C46.5 37.4766 43.125 37.8504 43.125 35.6074C43.125 33.3645 46.5 30 48.75 30C51 30 52.5 31.4953 52.5 33.7383C52.5 35.9812 51 37.4766 48.75 37.4766V37.4766Z" fill="white"/>
</g>
<defs>
<clipPath id="clip0_702_7">
<rect width="60" height="60" fill="white"/>
</clipPath>
</defs>
</svg>
