<svg width="40" height="40" viewBox="0 0 40 40" fill="none" xmlns="http://www.w3.org/2000/svg">
<path d="M22.3567 20L27.0717 24.7133C27.3844 25.0261 27.5601 25.4502 27.5601 25.8925C27.5601 26.3348 27.3844 26.7589 27.0717 27.0717C26.7589 27.3844 26.3348 27.5601 25.8925 27.5601C25.4502 27.5601 25.0261 27.3844 24.7133 27.0717L20 22.3567L15.2867 27.0717C14.9739 27.3844 14.5498 27.5601 14.1075 27.5601C13.6652 27.5601 13.2411 27.3844 12.9283 27.0717C12.6156 26.7589 12.4399 26.3348 12.4399 25.8925C12.4399 25.4502 12.6156 25.0261 12.9283 24.7133L17.6433 20L12.9283 15.2867C12.6156 14.9739 12.4399 14.5498 12.4399 14.1075C12.4399 13.6652 12.6156 13.2411 12.9283 12.9283C13.2411 12.6156 13.6652 12.4399 14.1075 12.4399C14.5498 12.4399 14.9739 12.6156 15.2867 12.9283L20 17.6433L24.7133 12.9283C25.0261 12.6156 25.4502 12.4399 25.8925 12.4399C26.3348 12.4399 26.7589 12.6156 27.0717 12.9283C27.3844 13.2411 27.5601 13.6652 27.5601 14.1075C27.5601 14.5498 27.3844 14.9739 27.0717 15.2867L22.3567 20ZM20 36.6667C10.795 36.6667 3.33334 29.205 3.33334 20C3.33334 10.795 10.795 3.33333 20 3.33333C29.205 3.33333 36.6667 10.795 36.6667 20C36.6667 29.205 29.205 36.6667 20 36.6667ZM20 33.3333C23.5362 33.3333 26.9276 31.9286 29.4281 29.4281C31.9286 26.9276 33.3333 23.5362 33.3333 20C33.3333 16.4638 31.9286 13.0724 29.4281 10.5719C26.9276 8.07143 23.5362 6.66667 20 6.66667C16.4638 6.66667 13.0724 8.07143 10.5719 10.5719C8.07143 13.0724 6.66668 16.4638 6.66668 20C6.66668 23.5362 8.07143 26.9276 10.5719 29.4281C13.0724 31.9286 16.4638 33.3333 20 33.3333V33.3333Z" fill="white"/>
</svg>
