<svg width="60" height="60" viewBox="0 0 60 60" fill="none" xmlns="http://www.w3.org/2000/svg">
<path d="M10.7325 26.7675L28.2325 9.26749C28.7013 8.79881 29.3371 8.53552 30 8.53552C30.6629 8.53552 31.2987 8.79881 31.7675 9.26749L49.2675 26.7675C49.7364 27.2362 49.9999 27.872 50 28.535V52.5C50 53.163 49.7366 53.7989 49.2678 54.2678C48.7989 54.7366 48.163 55 47.5 55H35V37.5H25V55H12.5C11.837 55 11.2011 54.7366 10.7322 54.2678C10.2634 53.7989 10 53.163 10 52.5V28.535C10.0001 27.872 10.2636 27.2362 10.7325 26.7675V26.7675Z" fill="white"/>
</svg>
