<svg width="60" height="60" viewBox="0 0 60 60" fill="none" xmlns="http://www.w3.org/2000/svg">
<path d="M60 52.5C60 54.4891 59.2098 56.3968 57.8033 57.8033C56.3968 59.2098 54.4891 60 52.5 60H7.5C5.51088 60 3.60322 59.2098 2.1967 57.8033C0.790176 56.3968 0 54.4891 0 52.5V7.5C0 5.51088 0.790176 3.60322 2.1967 2.1967C3.60322 0.790176 5.51088 0 7.5 0L52.5 0C54.4891 0 56.3968 0.790176 57.8033 2.1967C59.2098 3.60322 60 5.51088 60 7.5V52.5ZM43.125 28.125H21.4012L29.4525 20.0775C29.8046 19.7254 30.0024 19.2479 30.0024 18.75C30.0024 18.2521 29.8046 17.7746 29.4525 17.4225C29.1004 17.0704 28.6229 16.8726 28.125 16.8726C27.6271 16.8726 27.1496 17.0704 26.7975 17.4225L15.5475 28.6725C15.3729 28.8467 15.2344 29.0536 15.1398 29.2814C15.0453 29.5092 14.9966 29.7534 14.9966 30C14.9966 30.2466 15.0453 30.4908 15.1398 30.7186C15.2344 30.9464 15.3729 31.1533 15.5475 31.3275L26.7975 42.5775C27.1496 42.9296 27.6271 43.1274 28.125 43.1274C28.6229 43.1274 29.1004 42.9296 29.4525 42.5775C29.8046 42.2254 30.0024 41.7479 30.0024 41.25C30.0024 40.7521 29.8046 40.2746 29.4525 39.9225L21.4012 31.875H43.125C43.6223 31.875 44.0992 31.6775 44.4508 31.3258C44.8025 30.9742 45 30.4973 45 30C45 29.5027 44.8025 29.0258 44.4508 28.6742C44.0992 28.3225 43.6223 28.125 43.125 28.125Z" fill="#FFC108"/>
</svg>
