<svg width="196" height="43" viewBox="0 0 196 43" fill="none" xmlns="http://www.w3.org/2000/svg">
<g clip-path="url(#clip0_103_37)">
<path d="M41.75 28.3203C40.2675 30.6676 39.3228 26.845 39.2211 26.3945C37.9784 21.0385 39.3083 12.8775 41.2195 14.0911C41.5393 14.2946 42.1352 14.9632 42.5712 17.2087C42.6512 17.6302 42.7456 18.2043 42.8111 18.6258C42.8983 19.3671 42.8983 19.3671 42.9273 19.7304C42.9709 20.3918 42.9709 20.3918 42.9855 20.7188C43 21.351 43 21.351 43 21.6635C42.9855 22.2885 42.9855 22.2885 42.9709 22.5937C42.9346 23.226 42.9273 23.2405 42.8983 23.5675C42.8256 24.2434 42.8183 24.2724 42.7674 24.6358C42.6439 25.4134 42.6366 25.4425 42.5494 25.8639L42.4477 26.3218C42.3023 26.9322 42.1279 27.6226 41.75 28.3203C42.3169 26.2128 42.4695 23.9236 42.1497 21.5327C42.4695 23.9236 42.3096 26.2128 41.75 28.3203Z" fill="#F2D17C"/>
<path d="M40.2021 32.099C40.5364 31.5177 40.8271 30.9072 41.0887 30.2822C41.205 30.0642 41.3431 29.7662 41.4448 29.5337C40.8126 30.9799 40.7544 31.0962 40.2021 32.099Z" fill="#F2D17C"/>
<path d="M40.2021 32.0991C39.33 33.5162 38.7559 34.4537 37.2952 36.0815L36.8083 36.5975C34.8171 38.6251 32.6588 35.3258 31.7358 28.4219C30.6893 20.6533 31.5977 11.2713 33.7634 7.46332C34.7735 5.69012 35.8781 5.43577 36.8737 6.46045L37.3606 6.97642C38.5524 8.36445 38.7341 8.58247 39.5917 9.86876C40.1803 10.8426 40.7835 11.8454 41.4085 13.3425L41.5029 13.5678C39.9623 9.95597 38.676 12.7756 38.3199 13.7276C36.0089 19.8975 37.4987 32.7677 40.3402 31.1616C40.6963 30.9582 40.9361 30.573 41.1105 30.2823C40.8271 30.9146 40.5291 31.5177 40.2021 32.0991Z" fill="#F2D17C"/>
<path d="M34.6791 38.48C32.9713 39.7081 32.8696 39.7808 31.7431 40.3985C29.7955 41.3578 29.7229 41.4014 28.531 41.8156L27.986 41.9973C25.7041 42.724 23.4295 38.4145 22.3757 30.5587C21.0022 20.3628 22.1941 8.03769 25.0355 3.03786C26.0093 1.3228 27.0485 0.690559 28.0587 1.01758L28.6037 1.19926C30.624 1.99865 30.7039 2.02772 31.8158 2.6309C33.6544 3.72824 33.7271 3.77185 34.7445 4.56397L34.9771 4.75292C33.9524 3.92446 32.8478 4.30235 31.8304 6.09735C29.454 10.276 28.4584 20.5663 29.6066 29.0907C30.5877 36.3652 32.8042 39.9915 34.9116 38.3055L34.6791 38.48Z" fill="white"/>
<path d="M25.0938 42.702C22.8482 42.9855 22.761 43 21.4674 43C19.1928 42.9055 19.0547 42.8983 17.6231 42.6512L17.4051 42.6076C15.3485 42.2079 13.4227 37.9275 12.4634 30.7984C11.0536 20.3118 12.2817 7.65236 15.1959 2.50718C15.9298 1.21362 16.7074 0.515971 17.4705 0.370627C19.5998 0.0581375 19.8759 0.0218016 21.5329 0C23.8511 0.0944735 23.902 0.101741 25.1592 0.312489L25.5952 0.392429C24.6287 0.203481 23.6331 0.879331 22.6956 2.52898C19.7742 7.66689 18.5533 20.3336 19.9631 30.8202C21.0169 38.6615 23.2479 43.0581 25.5298 42.6294L25.0938 42.702Z" fill="#F2D17C"/>
<path d="M14.1929 41.721C12.1799 40.8998 12.1 40.8707 10.9953 40.2603C9.17128 39.1411 9.09861 39.0975 8.0812 38.2981L8.02306 38.2472C6.6641 37.1499 5.45047 33.9087 4.79642 29.0397C3.64821 20.5226 4.64381 10.2249 7.02019 6.04631C7.36901 5.43586 7.72511 4.99256 8.0812 4.70187C8.71344 4.23677 9.56371 3.61906 10.225 3.1903C12.1072 2.12929 12.1799 2.08568 13.3499 1.59878C13.8441 1.4171 14.5054 1.15548 15.0068 0.995605C14.3237 1.21362 13.6479 1.87494 12.9938 3.02315C10.1523 8.02298 8.96053 20.3409 10.334 30.544C11.2352 37.2444 13.0156 41.3576 14.9414 41.9753L14.1929 41.721Z" fill="white"/>
<g filter="url(#filter0_d_103_37)">
<path d="M5.50108 35.8563C4.33106 34.461 4.14938 34.243 3.29185 32.9349C2.69594 31.9248 2.13637 30.9728 1.5332 29.483C1.16984 28.5673 0.857344 27.3101 0.653863 25.7622C0.0652203 21.3801 0.472183 16.1622 1.56226 13.4661C2.16544 12.0853 2.24538 11.9109 2.80495 10.9008C3.70609 9.43282 3.89503 9.1276 4.91244 7.83404C5.2976 7.40527 5.79903 6.8239 6.19873 6.40967C5.95165 6.66402 5.71183 6.99831 5.47201 7.41254C3.30639 11.2206 2.39799 20.6025 3.44447 28.3711C4.00404 32.5134 4.99964 35.3622 6.14059 36.5395L5.50108 35.8563Z" fill="#F2D17C"/>
</g>
<path d="M0.188885 24.3669C0.101679 23.6257 0.101676 23.6257 0.0726073 23.2623C0.029004 22.601 0.0290049 22.601 0.0144705 22.274C-6.39719e-05 21.649 -6.48588e-05 21.649 -6.48588e-05 21.3365C0.0144696 20.7115 0.0144713 20.7115 0.0290058 20.4063C0.0653418 19.774 0.0726091 19.7595 0.101678 19.4325C0.17435 18.7421 0.181616 18.7276 0.232487 18.3642C0.35603 17.5866 0.363297 17.5576 0.450503 17.1361L0.552246 16.6782C-0.0436655 19.5124 -0.0872688 22.928 0.443238 25.8204C0.261558 24.8829 0.247023 24.7884 0.188885 24.3669Z" fill="#F2D17C"/>
</g>
<path d="M53.7852 28.0293C53.5443 28.0293 53.3685 28 53.2578 27.9414C53.1471 27.8763 53.0918 27.7786 53.0918 27.6484V17.1699H49.752C49.6283 17.1699 49.5404 17.1276 49.4883 17.043C49.4362 16.9583 49.4102 16.8281 49.4102 16.6523V16.3691C49.4102 16.1868 49.4362 16.0566 49.4883 15.9785C49.5404 15.8939 49.6283 15.8516 49.752 15.8516H57.8965C58.0202 15.8516 58.1081 15.8939 58.1602 15.9785C58.2122 16.0566 58.2383 16.1868 58.2383 16.3691V16.6523C58.2383 16.8281 58.2122 16.9583 58.1602 17.043C58.1081 17.1276 58.0202 17.1699 57.8965 17.1699H54.625V27.6484C54.625 27.9023 54.3906 28.0293 53.9219 28.0293H53.7852ZM61.7945 28C61.6122 28 61.4788 27.9577 61.3941 27.873C61.3095 27.7884 61.2672 27.6582 61.2672 27.4824V16.3691C61.2672 16.1868 61.3095 16.0566 61.3941 15.9785C61.4788 15.8939 61.6122 15.8516 61.7945 15.8516H67.8492C67.9729 15.8516 68.0608 15.8906 68.1129 15.9688C68.1715 16.0469 68.2008 16.1803 68.2008 16.3691V16.6523C68.2008 16.8281 68.1715 16.9583 68.1129 17.043C68.0608 17.1276 67.9729 17.1699 67.8492 17.1699H62.8004V21.125H67.3316C67.4553 21.125 67.5432 21.1673 67.5953 21.252C67.6539 21.3366 67.6832 21.4701 67.6832 21.6523V21.916C67.6832 22.0983 67.6539 22.2318 67.5953 22.3164C67.5432 22.3945 67.4553 22.4336 67.3316 22.4336H62.8004V26.6816H67.8687C67.9924 26.6816 68.0803 26.724 68.1324 26.8086C68.191 26.8867 68.2203 27.0169 68.2203 27.1992V27.4824C68.2203 27.6582 68.191 27.7884 68.1324 27.873C68.0803 27.9577 67.9924 28 67.8687 28H61.7945ZM76.6594 28.0977C74.7583 28.0977 73.3521 27.5964 72.4406 26.5938C71.5292 25.5911 71.0734 24.0319 71.0734 21.916C71.0734 17.7949 72.9452 15.7344 76.6887 15.7344C77.2355 15.7344 77.7661 15.793 78.2805 15.9102C78.7948 16.0208 79.2115 16.1608 79.5305 16.3301C79.8495 16.4993 80.009 16.6621 80.009 16.8184C80.009 16.916 79.9732 17.0462 79.9016 17.209C79.8365 17.3717 79.7583 17.515 79.6672 17.6387C79.576 17.7624 79.4947 17.8242 79.423 17.8242C79.3905 17.8242 79.2993 17.7819 79.1496 17.6973C78.8111 17.515 78.4562 17.362 78.0852 17.2383C77.7141 17.1146 77.2616 17.0527 76.7277 17.0527C75.328 17.0527 74.2961 17.4434 73.632 18.2246C72.9745 18.9993 72.6457 20.2363 72.6457 21.9355C72.6457 23.5957 72.9712 24.8197 73.6223 25.6074C74.2798 26.3887 75.2922 26.7793 76.6594 26.7793C77.2323 26.7793 77.7238 26.7109 78.134 26.5742C78.5441 26.4375 78.938 26.2682 79.3156 26.0664C79.4979 25.9688 79.6086 25.9199 79.6477 25.9199C79.7193 25.9199 79.8007 25.9818 79.8918 26.1055C79.9895 26.2292 80.0741 26.3691 80.1457 26.5254C80.2173 26.6751 80.2531 26.7826 80.2531 26.8477C80.2531 27.0104 80.0871 27.1927 79.7551 27.3945C79.4296 27.5898 78.9901 27.7559 78.4367 27.8926C77.8898 28.0293 77.2974 28.0977 76.6594 28.0977ZM84.2195 28.0293C83.7508 28.0293 83.5164 27.9023 83.5164 27.6484V16.1934C83.5164 15.9329 83.7508 15.8027 84.2195 15.8027H84.3563C84.8185 15.8027 85.0496 15.9329 85.0496 16.1934V21.1055H91.3387V16.1934C91.3387 15.9329 91.5698 15.8027 92.032 15.8027H92.1688C92.631 15.8027 92.8621 15.9329 92.8621 16.1934V27.6484C92.8621 27.7786 92.8068 27.8763 92.6961 27.9414C92.5854 28 92.4096 28.0293 92.1688 28.0293H92.032C91.7911 28.0293 91.6154 28 91.5047 27.9414C91.394 27.8763 91.3387 27.7786 91.3387 27.6484V22.4238H85.0496V27.6484C85.0496 27.9023 84.8185 28.0293 84.3563 28.0293H84.2195ZM97.7758 28C97.5935 28 97.46 27.9577 97.3754 27.873C97.2908 27.7884 97.2484 27.6582 97.2484 27.4824V16.3691C97.2484 16.1868 97.2908 16.0566 97.3754 15.9785C97.46 15.8939 97.5935 15.8516 97.7758 15.8516H100.881C101.728 15.8516 102.44 15.9785 103.02 16.2324C103.599 16.4863 104.036 16.8444 104.329 17.3066C104.621 17.7689 104.768 18.306 104.768 18.918C104.768 19.2956 104.68 19.6732 104.504 20.0508C104.329 20.4219 104.094 20.7441 103.801 21.0176C103.508 21.2845 103.196 21.4635 102.864 21.5547V21.623C102.864 21.5775 103.088 21.6654 103.537 21.8867C103.987 22.1016 104.39 22.4238 104.748 22.8535C105.113 23.2767 105.295 23.8268 105.295 24.5039C105.295 26.8346 103.785 28 100.764 28H97.7758ZM100.803 21.0859C101.259 21.0859 101.669 20.998 102.034 20.8223C102.398 20.64 102.681 20.3958 102.883 20.0898C103.092 19.7773 103.196 19.4323 103.196 19.0547C103.196 18.4036 103 17.9284 102.61 17.6289C102.219 17.3229 101.594 17.1699 100.735 17.1699H98.7816V21.0859H100.803ZM101.321 26.6816C102.082 26.6816 102.672 26.4831 103.088 26.0859C103.505 25.6823 103.713 25.1322 103.713 24.4355C103.713 23.791 103.485 23.293 103.03 22.9414C102.574 22.5833 101.903 22.4043 101.018 22.4043H98.7816V26.6816H101.321ZM109.242 28.0293C108.773 28.0293 108.539 27.9023 108.539 27.6484V16.3691C108.539 16.1868 108.581 16.0566 108.666 15.9785C108.751 15.8939 108.884 15.8516 109.066 15.8516H111.986C113.373 15.8516 114.415 16.0957 115.111 16.584C115.814 17.0723 116.166 17.8503 116.166 18.918C116.166 19.6406 115.99 20.2493 115.639 20.7441C115.294 21.2324 114.805 21.6003 114.174 21.8477V21.916C114.512 22.0332 114.789 22.2611 115.004 22.5996C115.225 22.9316 115.469 23.4264 115.736 24.084L117.094 27.5117C117.126 27.6289 117.143 27.7103 117.143 27.7559C117.143 27.9382 116.898 28.0293 116.41 28.0293H116.234C116.059 28.0293 115.906 28.0065 115.775 27.9609C115.652 27.9089 115.574 27.8405 115.541 27.7559L114.223 24.3477C114.053 23.9049 113.855 23.5599 113.627 23.3125C113.399 23.0651 113.129 22.8926 112.816 22.7949C112.504 22.6973 112.11 22.6484 111.635 22.6484H110.072V27.6484C110.072 27.9023 109.841 28.0293 109.379 28.0293H109.242ZM112.357 21.3301C112.768 21.3301 113.142 21.2324 113.48 21.0371C113.826 20.8418 114.096 20.5814 114.291 20.2559C114.493 19.9238 114.594 19.5723 114.594 19.2012C114.594 18.5176 114.385 18.0098 113.969 17.6777C113.552 17.3392 112.976 17.1699 112.24 17.1699H110.072V21.3301H112.357ZM120.845 28.0293C120.377 28.0293 120.142 27.9023 120.142 27.6484V16.1934C120.142 15.9329 120.377 15.8027 120.845 15.8027H120.982C121.444 15.8027 121.675 15.9329 121.675 16.1934V27.6484C121.675 27.9023 121.444 28.0293 120.982 28.0293H120.845ZM126.57 28C126.387 28 126.254 27.9577 126.169 27.873C126.085 27.7884 126.042 27.6582 126.042 27.4824V16.1934C126.042 15.9329 126.277 15.8027 126.745 15.8027H126.882C127.344 15.8027 127.575 15.9329 127.575 16.1934V26.6816H132.351C132.474 26.6816 132.562 26.724 132.614 26.8086C132.667 26.8867 132.693 27.0169 132.693 27.1992V27.4824C132.693 27.6582 132.667 27.7884 132.614 27.873C132.562 27.9577 132.474 28 132.351 28H126.57ZM135.966 28C135.783 28 135.65 27.9577 135.565 27.873C135.481 27.7884 135.438 27.6582 135.438 27.4824V16.1934C135.438 15.9329 135.673 15.8027 136.141 15.8027H136.278C136.74 15.8027 136.971 15.9329 136.971 16.1934V26.6816H141.747C141.871 26.6816 141.958 26.724 142.011 26.8086C142.063 26.8867 142.089 27.0169 142.089 27.1992V27.4824C142.089 27.6582 142.063 27.7884 142.011 27.873C141.958 27.9577 141.871 28 141.747 28H135.966ZM145.537 28.0293C145.069 28.0293 144.834 27.9023 144.834 27.6484V16.1934C144.834 15.9329 145.069 15.8027 145.537 15.8027H145.674C146.136 15.8027 146.368 15.9329 146.368 16.1934V27.6484C146.368 27.9023 146.136 28.0293 145.674 28.0293H145.537ZM150.012 28.0293C149.751 28.0293 149.562 28.0065 149.445 27.9609C149.328 27.9089 149.27 27.834 149.27 27.7363C149.27 27.6908 149.286 27.6126 149.318 27.502L153.43 16.0859C153.495 15.8971 153.726 15.8027 154.123 15.8027H154.631C155.028 15.8027 155.259 15.8971 155.324 16.0859L159.436 27.5117C159.468 27.5833 159.484 27.6582 159.484 27.7363C159.484 27.9316 159.24 28.0293 158.752 28.0293H158.605C158.202 28.0293 157.967 27.9382 157.902 27.7559L156.887 24.9043H151.789L150.793 27.7559C150.734 27.9382 150.503 28.0293 150.1 28.0293H150.012ZM156.418 23.5859L154.602 18.4199C154.549 18.2767 154.507 18.1139 154.475 17.9316C154.442 17.7493 154.413 17.5736 154.387 17.4043H154.348C154.27 17.8405 154.182 18.179 154.084 18.4199L152.268 23.5859H156.418ZM162.963 28.0293C162.715 28.0293 162.536 28 162.425 27.9414C162.315 27.8763 162.259 27.7786 162.259 27.6484V16.1934C162.259 15.9329 162.494 15.8027 162.963 15.8027H163.324C163.506 15.8027 163.649 15.8288 163.754 15.8809C163.864 15.9329 163.962 16.0176 164.046 16.1348L169.593 24.5039L170.111 25.4805V16.1934C170.111 15.9329 170.339 15.8027 170.795 15.8027H170.931C171.387 15.8027 171.615 15.9329 171.615 16.1934V27.6484C171.615 27.7786 171.56 27.8763 171.449 27.9414C171.338 28 171.166 28.0293 170.931 28.0293H170.58C170.417 28.0293 170.287 28.0098 170.189 27.9707C170.091 27.9316 170.017 27.8698 169.964 27.7852L164.242 19.1523L163.773 18.2539V27.6484C163.773 27.9023 163.542 28.0293 163.08 28.0293H162.963ZM180.757 28.0977C178.856 28.0977 177.45 27.5964 176.538 26.5938C175.627 25.5911 175.171 24.0319 175.171 21.916C175.171 17.7949 177.043 15.7344 180.786 15.7344C181.333 15.7344 181.864 15.793 182.378 15.9102C182.892 16.0208 183.309 16.1608 183.628 16.3301C183.947 16.4993 184.107 16.6621 184.107 16.8184C184.107 16.916 184.071 17.0462 183.999 17.209C183.934 17.3717 183.856 17.515 183.765 17.6387C183.674 17.7624 183.592 17.8242 183.521 17.8242C183.488 17.8242 183.397 17.7819 183.247 17.6973C182.909 17.515 182.554 17.362 182.183 17.2383C181.812 17.1146 181.359 17.0527 180.825 17.0527C179.426 17.0527 178.394 17.4434 177.73 18.2246C177.072 18.9993 176.743 20.2363 176.743 21.9355C176.743 23.5957 177.069 24.8197 177.72 25.6074C178.377 26.3887 179.39 26.7793 180.757 26.7793C181.33 26.7793 181.821 26.7109 182.232 26.5742C182.642 26.4375 183.036 26.2682 183.413 26.0664C183.596 25.9688 183.706 25.9199 183.745 25.9199C183.817 25.9199 183.898 25.9818 183.989 26.1055C184.087 26.2292 184.172 26.3691 184.243 26.5254C184.315 26.6751 184.351 26.7826 184.351 26.8477C184.351 27.0104 184.185 27.1927 183.853 27.3945C183.527 27.5898 183.088 27.7559 182.534 27.8926C181.988 28.0293 181.395 28.0977 180.757 28.0977ZM188.141 28C187.959 28 187.826 27.9577 187.741 27.873C187.656 27.7884 187.614 27.6582 187.614 27.4824V16.3691C187.614 16.1868 187.656 16.0566 187.741 15.9785C187.826 15.8939 187.959 15.8516 188.141 15.8516H194.196C194.32 15.8516 194.408 15.8906 194.46 15.9688C194.518 16.0469 194.548 16.1803 194.548 16.3691V16.6523C194.548 16.8281 194.518 16.9583 194.46 17.043C194.408 17.1276 194.32 17.1699 194.196 17.1699H189.147V21.125H193.679C193.802 21.125 193.89 21.1673 193.942 21.252C194.001 21.3366 194.03 21.4701 194.03 21.6523V21.916C194.03 22.0983 194.001 22.2318 193.942 22.3164C193.89 22.3945 193.802 22.4336 193.679 22.4336H189.147V26.6816H194.216C194.339 26.6816 194.427 26.724 194.479 26.8086C194.538 26.8867 194.567 27.0169 194.567 27.1992V27.4824C194.567 27.6582 194.538 27.7884 194.479 27.873C194.427 27.9577 194.339 28 194.216 28H188.141Z" fill="white"/>
<defs>
<filter id="filter0_d_103_37" x="-3.61572" y="6.40967" width="13.8145" height="38.1299" filterUnits="userSpaceOnUse" color-interpolation-filters="sRGB">
<feFlood flood-opacity="0" result="BackgroundImageFix"/>
<feColorMatrix in="SourceAlpha" type="matrix" values="0 0 0 0 0 0 0 0 0 0 0 0 0 0 0 0 0 0 127 0" result="hardAlpha"/>
<feOffset dy="4"/>
<feGaussianBlur stdDeviation="2"/>
<feComposite in2="hardAlpha" operator="out"/>
<feColorMatrix type="matrix" values="0 0 0 0 0 0 0 0 0 0 0 0 0 0 0 0 0 0 0.25 0"/>
<feBlend mode="normal" in2="BackgroundImageFix" result="effect1_dropShadow_103_37"/>
<feBlend mode="normal" in="SourceGraphic" in2="effect1_dropShadow_103_37" result="shape"/>
</filter>
<clipPath id="clip0_103_37">
<rect width="43" height="43" fill="white" transform="translate(43) rotate(90)"/>
</clipPath>
</defs>
</svg>
