<svg width="33" height="36" viewBox="0 0 33 36" fill="none" xmlns="http://www.w3.org/2000/svg">
<path d="M30.9063 15.8125L4.51563 1.03125C4.07005 0.789414 3.5618 0.687851 3.0575 0.739873C2.5532 0.791895 2.07639 0.995075 1.68956 1.32278C1.30273 1.65048 1.02395 2.08742 0.889747 2.57631C0.755546 3.0652 0.772192 3.58323 0.937504 4.0625L5.92188 18L0.937504 31.9375C0.805763 32.3154 0.766067 32.7192 0.821711 33.1155C0.877356 33.5118 1.02674 33.8891 1.25745 34.216C1.48816 34.543 1.79354 34.8102 2.14824 34.9955C2.50294 35.1807 2.89672 35.2787 3.29688 35.2812C3.7227 35.2793 4.14142 35.172 4.51563 34.9688L30.9063 20.1875C31.2929 19.9679 31.6144 19.6498 31.8381 19.2656C32.0618 18.8813 32.1796 18.4446 32.1796 18C32.1796 17.5554 32.0618 17.1187 31.8381 16.7344C31.6144 16.3502 31.2929 16.0321 30.9063 15.8125V15.8125ZM3.29688 32.7812L8.125 19.25H17.25C17.5815 19.25 17.8995 19.1183 18.1339 18.8839C18.3683 18.6495 18.5 18.3315 18.5 18C18.5 17.6685 18.3683 17.3505 18.1339 17.1161C17.8995 16.8817 17.5815 16.75 17.25 16.75H8.125L3.29688 3.21875L29.6875 18L3.29688 32.7812Z" fill="#73726E"/>
</svg>
