<svg width="60" height="60" viewBox="0 0 60 60" fill="none" xmlns="http://www.w3.org/2000/svg">
<path fill-rule="evenodd" clip-rule="evenodd" d="M40 22.5C40 25.1522 38.9464 27.6957 37.0711 29.5711C35.1957 31.4464 32.6522 32.5 30 32.5C27.3478 32.5 24.8043 31.4464 22.9289 29.5711C21.0536 27.6957 20 25.1522 20 22.5C20 19.8478 21.0536 17.3043 22.9289 15.4289C24.8043 13.5536 27.3478 12.5 30 12.5C32.6522 12.5 35.1957 13.5536 37.0711 15.4289C38.9464 17.3043 40 19.8478 40 22.5V22.5ZM35 22.5C35 23.8261 34.4732 25.0979 33.5355 26.0355C32.5979 26.9732 31.3261 27.5 30 27.5C28.6739 27.5 27.4021 26.9732 26.4645 26.0355C25.5268 25.0979 25 23.8261 25 22.5C25 21.1739 25.5268 19.9021 26.4645 18.9645C27.4021 18.0268 28.6739 17.5 30 17.5C31.3261 17.5 32.5979 18.0268 33.5355 18.9645C34.4732 19.9021 35 21.1739 35 22.5V22.5Z" fill="black"/>
<path fill-rule="evenodd" clip-rule="evenodd" d="M30 2.5C14.8125 2.5 2.5 14.8125 2.5 30C2.5 45.1875 14.8125 57.5 30 57.5C45.1875 57.5 57.5 45.1875 57.5 30C57.5 14.8125 45.1875 2.5 30 2.5ZM7.5 30C7.5 35.225 9.2825 40.035 12.27 43.855C14.3681 41.0997 17.0748 38.8669 20.1786 37.3308C23.2824 35.7947 26.6994 34.997 30.1625 35C33.5808 34.9968 36.9548 35.7738 40.0273 37.272C43.0999 38.7701 45.7899 40.9498 47.8925 43.645C50.0586 40.804 51.5171 37.488 52.1472 33.9715C52.7774 30.4549 52.5611 26.8388 51.5162 23.4225C50.4714 20.0061 48.628 16.8876 46.1387 14.3251C43.6494 11.7626 40.5856 9.82965 37.201 8.68627C33.8163 7.54289 30.208 7.22193 26.6746 7.74993C23.1413 8.27794 19.7845 9.63973 16.8819 11.7226C13.9794 13.8055 11.6145 16.5497 9.98307 19.728C8.35162 22.9063 7.50045 26.4274 7.5 30V30ZM30 52.5C24.8349 52.5078 19.8257 50.7309 15.82 47.47C17.4323 45.1618 19.5783 43.2773 22.0755 41.9767C24.5726 40.6761 27.347 39.998 30.1625 40C32.9429 39.9978 35.6837 40.6589 38.1573 41.9286C40.6309 43.1982 42.7659 45.0396 44.385 47.3C40.3482 50.6668 35.2565 52.5074 30 52.5V52.5Z" fill="black"/>
</svg>
