<svg width="60" height="60" viewBox="0 0 60 60" fill="none" xmlns="http://www.w3.org/2000/svg">
<path d="M48.3251 16.735L49.3751 13.2925C49.4711 12.9785 49.628 12.6864 49.8369 12.4331C50.0458 12.1797 50.3026 11.9699 50.5925 11.8158C50.8825 11.6616 51.1999 11.5661 51.5268 11.5347C51.8537 11.5032 52.1835 11.5365 52.4976 11.6325C52.8116 11.7285 53.1036 11.8855 53.357 12.0943C53.6104 12.3032 53.8201 12.56 53.9742 12.8499C54.1284 13.1399 54.2239 13.4574 54.2554 13.7842C54.2868 14.1111 54.2536 14.441 54.1576 14.755L51.2326 24.3175C51.0387 24.9512 50.6012 25.482 50.0162 25.7933C49.4311 26.1046 48.7464 26.1708 48.1126 25.9775L38.5501 23.0525C38.2295 22.9622 37.9301 22.8089 37.6697 22.6013C37.4092 22.3938 37.1928 22.1363 37.0332 21.844C36.8736 21.5517 36.774 21.2304 36.7403 20.8991C36.7066 20.5678 36.7394 20.233 36.8368 19.9146C36.9343 19.5961 37.0944 19.3003 37.3077 19.0446C37.5211 18.7888 37.7833 18.5783 38.0792 18.4253C38.375 18.2723 38.6984 18.18 39.0304 18.1538C39.3625 18.1275 39.6964 18.1679 40.0126 18.2725L44.1926 19.55C42.3447 16.7472 39.7672 14.5017 36.7377 13.0552C33.7082 11.6087 30.3415 11.0161 27.0002 11.3412C23.6589 11.6662 20.4695 12.8967 17.7757 14.9C15.0818 16.9033 12.9855 19.6036 11.7126 22.71L11.0626 24.2925C10.9443 24.6049 10.7647 24.8904 10.5343 25.1322C10.3039 25.374 10.0274 25.5672 9.72109 25.7004C9.41478 25.8335 9.08488 25.904 8.7509 25.9075C8.41691 25.9111 8.0856 25.8476 7.77653 25.721C7.46746 25.5944 7.18691 25.4071 6.95142 25.1702C6.71594 24.9333 6.53031 24.6517 6.4055 24.3419C6.28068 24.0321 6.21921 23.7004 6.22472 23.3664C6.23023 23.0325 6.3026 22.703 6.43756 22.3975L7.08756 20.815C8.70314 16.8732 11.3619 13.4459 14.7783 10.901C18.1947 8.35621 22.2397 6.78999 26.479 6.37055C30.7184 5.95112 34.9919 6.6943 38.8407 8.52031C42.6896 10.3463 45.9684 13.1862 48.3251 16.735V16.735ZM9.52006 43.2675L8.70256 46.545C8.62942 46.87 8.49204 47.1772 8.2985 47.4484C8.10496 47.7196 7.85916 47.9493 7.57555 48.1242C7.29195 48.2991 6.97625 48.4155 6.64702 48.4666C6.31778 48.5177 5.98165 48.5024 5.65839 48.4218C5.33512 48.3411 5.03124 48.1967 4.76459 47.9969C4.49795 47.7972 4.27392 47.5461 4.10568 47.2585C3.93744 46.9709 3.82839 46.6526 3.78492 46.3223C3.74145 45.992 3.76445 45.6563 3.85256 45.335L6.27006 35.635C6.35162 35.3047 6.49973 34.9946 6.70532 34.7235C6.9109 34.4525 7.16964 34.2263 7.4657 34.0587C7.76175 33.8911 8.08889 33.7857 8.42709 33.749C8.76529 33.7123 9.10742 33.7449 9.43256 33.845L19.0026 36.23C19.646 36.3904 20.1994 36.7999 20.541 37.3684C20.8825 37.9369 20.9843 38.6178 20.8238 39.2612C20.6634 39.9047 20.2538 40.4581 19.6854 40.7997C19.1169 41.1412 18.436 41.2429 17.7926 41.0825L13.3276 39.97C15.2364 42.8921 17.9345 45.2132 21.1089 46.664C24.2834 48.1149 27.8041 48.636 31.2628 48.1671C34.7214 47.6981 37.9762 46.2582 40.6497 44.0144C43.3232 41.7706 45.3058 38.8149 46.3676 35.49C46.5691 34.8581 47.0134 34.3322 47.6028 34.0279C47.8946 33.8772 48.2132 33.7855 48.5405 33.758C48.8677 33.7305 49.1972 33.7677 49.5101 33.8675C49.8229 33.9673 50.1131 34.1277 50.364 34.3397C50.6148 34.5516 50.8215 34.8109 50.9721 35.1027C51.1228 35.3945 51.2145 35.7131 51.242 36.0404C51.2696 36.3676 51.2324 36.6971 51.1326 37.01C50.0918 40.2749 48.3482 43.2721 46.0245 45.7906C43.7007 48.3091 40.8533 50.2878 37.6826 51.5875C32.7421 53.6115 27.2591 53.8901 22.1389 52.3775C17.0187 50.8648 12.5675 47.6513 9.52006 43.2675V43.2675Z" fill="black"/>
</svg>
