<svg width="419" height="290" fill="none" xmlns="http://www.w3.org/2000/svg"><path fill-rule="evenodd" clip-rule="evenodd" d="M418.2 289.4l-2-5.6c-6-16.2-11.9-34-17.6-52.9-5.7-18.9-11.3-38.8-16.9-58.8-5.8-21.1-12.3-41.6-19.9-60.7-7.4-19-16-36.4-25.1-51.6a164 164 0 00-30.5-37.5c-11-9.6-23.5-16-35.1-19a77.7 77.7 0 00-32.8-1.6c-10.3 1.7-20 5-28.6 9.4A123.3 123.3 0 00171 43a834.9 834.9 0 00-83.8 110 284.9 284.9 0 00-15.4 28.3c-3 6.1-5.8 12.5-8.6 19l-5.5 12.2c-4.9 10.7-10 21.2-16.2 31.5-6 10.2-13 20-21.4 28.8A124 124 0 01.6 289.4h59.3a229.4 229.4 0 0032.4-48.6 496.5 496.5 0 0014.8-33 2880.2 2880.2 0 0014.5-35.8 3902.5 3902.5 0 0028-72.3c1.6-4.5 2.9-8.7 4.1-12.7 1.9-6 3.6-11.5 6-16.7 3.8-8.8 9.7-17 17.4-24a85 85 0 0128-16.9 72 72 0 0134.5-4.6c12 1.3 24.6 6.3 36 15A141.6 141.6 0 01307 75.5c9.5 14.9 18 32.2 25.7 51.5a527 527 0 0120 62.3c5.1 19.7 10.3 39.2 15.7 57.8 4.2 14.8 8.5 29 12.8 42.3h37zm-55.5 0a2252.4 2252.4 0 01-24.3-89 508.6 508.6 0 00-20-63 275.8 275.8 0 00-26-51.1c-9.8-14.5-20.4-26-32-34a65.5 65.5 0 00-36-12c-11.7-.1-23 3.4-32.9 9a82.5 82.5 0 00-24.8 22 92.1 92.1 0 00-14.5 29.8c-1.5 5.6-2.5 11.5-3.6 17.7-1 5.4-2 11-3.4 17a1169.8 1169.8 0 01-22.8 79 500.2 500.2 0 01-13.7 36.7 231.1 231.1 0 01-20.3 38h35.8a247 247 0 008-26.4 384 384 0 008.4-42.8c1-7.8 1.6-15.5 2.1-23.2.5-6.5 1-13 1.7-19.3 1.6-13.5 4.9-26.3 9.6-38a103.2 103.2 0 0119.4-30.8c8.6-8.5 18-15.1 28.6-18.5a43.3 43.3 0 0133.3 3 95.3 95.3 0 0130.8 27.8 223.1 223.1 0 0125.9 47.4 466.2 466.2 0 0120.1 62c5 19.8 10.3 39.5 15.6 58.4v.3h35z" fill="#fff"/></svg>