<svg width="60" height="60" viewBox="0 0 60 60" fill="none" xmlns="http://www.w3.org/2000/svg">
<path d="M30.0001 3.33331C24.7259 3.33331 19.5702 4.89729 15.1848 7.82746C10.7995 10.7576 7.3816 14.9224 5.36326 19.7951C3.34493 24.6678 2.81684 30.0296 3.84578 35.2024C4.87472 40.3752 7.41447 45.1268 11.1439 48.8562C14.8733 52.5856 19.6248 55.1253 24.7976 56.1543C29.9705 57.1832 35.3322 56.6551 40.2049 54.6368C45.0776 52.6184 49.2424 49.2005 52.1726 44.8152C55.1027 40.4299 56.6667 35.2741 56.6667 30C56.6667 22.9275 53.8572 16.1448 48.8562 11.1438C43.8553 6.14283 37.0725 3.33331 30.0001 3.33331V3.33331ZM47.4167 21.05L25.5167 42.9333L12.5834 30C12.1414 29.558 11.893 28.9584 11.893 28.3333C11.893 27.7082 12.1414 27.1087 12.5834 26.6666C13.0254 26.2246 13.6249 25.9763 14.2501 25.9763C14.8752 25.9763 15.4747 26.2246 15.9167 26.6666L25.5501 36.3L44.1167 17.75C44.3356 17.5311 44.5954 17.3575 44.8814 17.239C45.1674 17.1206 45.4739 17.0596 45.7834 17.0596C46.0929 17.0596 46.3994 17.1206 46.6854 17.239C46.9713 17.3575 47.2312 17.5311 47.4501 17.75C47.6689 17.9688 47.8425 18.2287 47.961 18.5147C48.0794 18.8006 48.1404 19.1071 48.1404 19.4166C48.1404 19.7262 48.0794 20.0327 47.961 20.3186C47.8425 20.6046 47.6689 20.8644 47.4501 21.0833L47.4167 21.05Z" fill="#0FA958"/>
</svg>
