<svg width="60" height="60" viewBox="0 0 60 60" fill="none" xmlns="http://www.w3.org/2000/svg">
<path d="M47.5 16.25H40V13.75C40 11.7609 39.2098 9.85322 37.8033 8.4467C36.3968 7.04018 34.4891 6.25 32.5 6.25H27.5C25.5109 6.25 23.6032 7.04018 22.1967 8.4467C20.7902 9.85322 20 11.7609 20 13.75V16.25H12.5C10.5109 16.25 8.60322 17.0402 7.1967 18.4467C5.79018 19.8532 5 21.7609 5 23.75V46.25C5 48.2391 5.79018 50.1468 7.1967 51.5533C8.60322 52.9598 10.5109 53.75 12.5 53.75H47.5C49.4891 53.75 51.3968 52.9598 52.8033 51.5533C54.2098 50.1468 55 48.2391 55 46.25V23.75C55 21.7609 54.2098 19.8532 52.8033 18.4467C51.3968 17.0402 49.4891 16.25 47.5 16.25ZM25 13.75C25 13.087 25.2634 12.4511 25.7322 11.9822C26.2011 11.5134 26.837 11.25 27.5 11.25H32.5C33.163 11.25 33.7989 11.5134 34.2678 11.9822C34.7366 12.4511 35 13.087 35 13.75V16.25H25V13.75ZM50 46.25C50 46.913 49.7366 47.5489 49.2678 48.0178C48.7989 48.4866 48.163 48.75 47.5 48.75H12.5C11.837 48.75 11.2011 48.4866 10.7322 48.0178C10.2634 47.5489 10 46.913 10 46.25V33.625H17.5V36.25C17.5 36.913 17.7634 37.5489 18.2322 38.0178C18.7011 38.4866 19.337 38.75 20 38.75C20.663 38.75 21.2989 38.4866 21.7678 38.0178C22.2366 37.5489 22.5 36.913 22.5 36.25V33.625H37.5V36.25C37.5 36.913 37.7634 37.5489 38.2322 38.0178C38.7011 38.4866 39.337 38.75 40 38.75C40.663 38.75 41.2989 38.4866 41.7678 38.0178C42.2366 37.5489 42.5 36.913 42.5 36.25V33.625H50V46.25ZM50 28.75H10V23.75C10 23.087 10.2634 22.4511 10.7322 21.9822C11.2011 21.5134 11.837 21.25 12.5 21.25H47.5C48.163 21.25 48.7989 21.5134 49.2678 21.9822C49.7366 22.4511 50 23.087 50 23.75V28.75Z" fill="#fff"/>
</svg>
