<svg width="60" height="60" viewBox="0 0 60 60" fill="none" xmlns="http://www.w3.org/2000/svg">
<path d="M30 55C26.2201 55.0107 22.4881 54.1555 19.09 52.5C17.8464 51.895 16.6549 51.1885 15.5275 50.3875L15.185 50.1375C12.0846 47.849 9.54976 44.8805 7.775 41.46C5.93934 37.9197 4.98727 33.9879 5 30C5 16.1925 16.1925 5 30 5C43.8075 5 55 16.1925 55 30C55.0126 33.986 54.0614 37.9159 52.2275 41.455C50.4553 44.8736 47.924 47.841 44.8275 50.13C43.66 50.985 42.42 51.7375 41.1225 52.38L40.9225 52.48C37.5223 54.1443 33.7856 55.0064 30 55V55ZM30 42.5C28.1626 42.4964 26.3599 43.0004 24.7908 43.9563C23.2216 44.9123 21.947 46.2831 21.1075 47.9175C23.8719 49.2867 26.9151 49.9991 30 49.9991C33.0849 49.9991 36.1281 49.2867 38.8925 47.9175V47.905C38.052 46.2724 36.7768 44.9037 35.2076 43.9499C33.6384 42.9961 31.8363 42.4944 30 42.5V42.5ZM30 37.5C32.6604 37.503 35.2724 38.2118 37.5694 39.554C39.8664 40.8962 41.7663 42.8238 43.075 45.14L43.11 45.1075L43.145 45.0775L43.1025 45.115L43.0775 45.135C46.1648 42.4678 48.3625 38.9202 49.3758 34.9683C50.3891 31.0163 50.1696 26.8489 48.7466 23.0253C47.3237 19.2016 44.7654 15.9046 41.415 13.5766C38.0646 11.2485 34.0823 10.0008 30.0025 10.0008C25.9227 10.0008 21.9404 11.2485 18.59 13.5766C15.2396 15.9046 12.6813 19.2016 11.2584 23.0253C9.83543 26.8489 9.61589 31.0163 10.6292 34.9683C11.6425 38.9202 13.8403 42.4678 16.9275 45.135C18.2371 42.8199 20.1372 40.8934 22.4342 39.5522C24.7311 38.2109 27.3426 37.5028 30.0025 37.5H30ZM30 35C27.3478 35 24.8043 33.9464 22.9289 32.0711C21.0536 30.1957 20 27.6522 20 25C20 22.3478 21.0536 19.8043 22.9289 17.9289C24.8043 16.0536 27.3478 15 30 15C32.6522 15 35.1957 16.0536 37.0711 17.9289C38.9464 19.8043 40 22.3478 40 25C40 27.6522 38.9464 30.1957 37.0711 32.0711C35.1957 33.9464 32.6522 35 30 35ZM30 20C28.6739 20 27.4022 20.5268 26.4645 21.4645C25.5268 22.4021 25 23.6739 25 25C25 26.3261 25.5268 27.5979 26.4645 28.5355C27.4022 29.4732 28.6739 30 30 30C31.3261 30 32.5979 29.4732 33.5355 28.5355C34.4732 27.5979 35 26.3261 35 25C35 23.6739 34.4732 22.4021 33.5355 21.4645C32.5979 20.5268 31.3261 20 30 20V20Z" fill="black"/>
</svg>
