<svg width="60" height="60" viewBox="0 0 60 60" fill="none" xmlns="http://www.w3.org/2000/svg">
<path d="M20 26.9H18.55C16.5713 26.8285 14.599 27.1644 12.7554 27.8869C10.9119 28.6094 9.23658 29.703 7.83335 31.1L7.43335 31.5667V45.3667H14.2333V37.5333L15.15 36.5L15.5667 36.0167C17.7366 33.7875 20.438 32.1471 23.4167 31.25C21.9253 30.1152 20.7492 28.6177 20 26.9V26.9Z" fill="white"/>
<path d="M52.2333 31.05C50.8301 29.6531 49.1547 28.5594 47.3112 27.8369C45.4677 27.1144 43.4954 26.7785 41.5166 26.85C40.9098 26.8517 40.3034 26.8851 39.7 26.95C38.9368 28.5615 37.7927 29.963 36.3666 31.0333C39.5466 31.9131 42.4273 33.6415 44.7 36.0333L45.1166 36.5L46.0166 37.5333V45.3833H52.5833V31.5167L52.2333 31.05Z" fill="white"/>
<path d="M18.5 23.65H19.0166C18.7766 21.5887 19.1383 19.502 20.058 17.6418C20.9778 15.7816 22.4163 14.2273 24.2 13.1666C23.5534 12.1789 22.6614 11.376 21.6113 10.8366C20.5612 10.2971 19.389 10.0397 18.2095 10.0894C17.03 10.1391 15.8837 10.4942 14.8827 11.1201C13.8817 11.746 13.0604 12.6211 12.4992 13.6597C11.9381 14.6984 11.6563 15.865 11.6814 17.0452C11.7066 18.2255 12.0378 19.379 12.6427 20.3928C13.2476 21.4066 14.1055 22.2459 15.1322 22.8286C16.159 23.4112 17.3194 23.7172 18.5 23.7166V23.65Z" fill="white"/>
<path d="M40.7167 22.4C40.7369 22.783 40.7369 23.1669 40.7167 23.55C41.0365 23.6007 41.3595 23.6285 41.6833 23.6333H42C43.1754 23.5706 44.3145 23.2047 45.3064 22.5711C46.2983 21.9375 47.1093 21.0579 47.6604 20.0178C48.2115 18.9778 48.4839 17.8128 48.451 16.6362C48.4182 15.4596 48.0813 14.3116 47.4731 13.3039C46.8649 12.2962 46.0061 11.4631 44.9804 10.8859C43.9546 10.3086 42.7969 10.0067 41.6199 10.0097C40.4429 10.0126 39.2867 10.3203 38.2638 10.9028C37.241 11.4852 36.3865 12.3226 35.7833 13.3333C37.2918 14.3182 38.5322 15.6621 39.3932 17.2446C40.2543 18.827 40.709 20.5985 40.7167 22.4V22.4Z" fill="white"/>
<path d="M29.7833 29.8667C33.8978 29.8667 37.2333 26.5312 37.2333 22.4167C37.2333 18.3022 33.8978 14.9667 29.7833 14.9667C25.6688 14.9667 22.3333 18.3022 22.3333 22.4167C22.3333 26.5312 25.6688 29.8667 29.7833 29.8667Z" fill="white"/>
<path d="M30.1834 33.8334C28.0068 33.7455 25.8349 34.0988 23.7984 34.8722C21.7619 35.6455 19.903 36.8229 18.3334 38.3334L17.9167 38.8V49.35C17.9232 49.6937 17.9973 50.0327 18.1349 50.3477C18.2724 50.6626 18.4707 50.9474 18.7183 51.1858C18.9659 51.4241 19.2581 51.6114 19.5781 51.7368C19.8981 51.8622 20.2397 51.9233 20.5834 51.9167H39.7334C40.077 51.9233 40.4186 51.8622 40.7386 51.7368C41.0586 51.6114 41.3508 51.4241 41.5984 51.1858C41.846 50.9474 42.0443 50.6626 42.1818 50.3477C42.3194 50.0327 42.3935 49.6937 42.4 49.35V38.8334L42 38.3334C40.4406 36.8182 38.5881 35.6376 36.5561 34.8638C34.5242 34.09 32.3556 33.7393 30.1834 33.8334V33.8334Z" fill="white"/>
</svg>
