<svg width="40" height="40" viewBox="0 0 40 40" fill="none" xmlns="http://www.w3.org/2000/svg">
<path d="M20 18.8889C21.5383 18.8889 23.0421 18.4327 24.3211 17.5781C25.6002 16.7234 26.5971 15.5087 27.1857 14.0875C27.7744 12.6663 27.9284 11.1025 27.6283 9.59373C27.3282 8.08498 26.5875 6.69912 25.4997 5.61137C24.412 4.52363 23.0261 3.78287 21.5174 3.48276C20.0086 3.18266 18.4448 3.33668 17.0236 3.92536C15.6024 4.51405 14.3877 5.51094 13.533 6.78999C12.6784 8.06904 12.2222 9.5728 12.2222 11.1111C12.2222 13.1739 13.0417 15.1522 14.5003 16.6108C15.9589 18.0694 17.9372 18.8889 20 18.8889ZM20 5.55554C21.0988 5.55554 22.1729 5.88137 23.0865 6.49182C24.0001 7.10227 24.7122 7.96993 25.1327 8.98508C25.5532 10.0002 25.6632 11.1173 25.4488 12.1949C25.2345 13.2726 24.7053 14.2625 23.9284 15.0395C23.1514 15.8164 22.1615 16.3455 21.0838 16.5599C20.0062 16.7743 18.8891 16.6642 17.874 16.2438C16.8588 15.8233 15.9912 15.1112 15.3807 14.1976C14.7703 13.284 14.4445 12.2099 14.4445 11.1111C14.4445 9.63767 15.0298 8.22459 16.0716 7.18272C17.1135 6.14085 18.5266 5.55554 20 5.55554V5.55554Z" fill="black"/>
<path d="M33.8555 27.0778C32.0737 25.1944 29.9264 23.6943 27.545 22.6691C25.1637 21.6439 22.5982 21.1151 20.0055 21.1151C17.4129 21.1151 14.8474 21.6439 12.4661 22.6691C10.0847 23.6943 7.93743 25.1944 6.15554 27.0778C5.76923 27.4904 5.55467 28.0347 5.55554 28.6V34.4444C5.55554 35.0338 5.78967 35.599 6.20642 36.0158C6.62317 36.4325 7.1884 36.6667 7.77777 36.6667H32.2222C32.8116 36.6667 33.3768 36.4325 33.7936 36.0158C34.2103 35.599 34.4444 35.0338 34.4444 34.4444V28.6C34.4483 28.0362 34.2378 27.4921 33.8555 27.0778V27.0778ZM32.2222 34.4444H7.77777V28.5889C9.35246 26.9307 11.2481 25.6104 13.3493 24.7081C15.4505 23.8058 17.7133 23.3405 20 23.3405C22.2867 23.3405 24.5495 23.8058 26.6507 24.7081C28.7519 25.6104 30.6475 26.9307 32.2222 28.5889V34.4444Z" fill="black"/>
</svg>
