<svg width="40" height="40" viewBox="0 0 40 40" fill="none" xmlns="http://www.w3.org/2000/svg">
<path d="M15 5C16.2361 5 17.4445 5.36656 18.4723 6.05331C19.5001 6.74007 20.3012 7.71619 20.7742 8.85823C21.2473 10.0003 21.3711 11.2569 21.1299 12.4693C20.8888 13.6817 20.2935 14.7953 19.4194 15.6694C18.5453 16.5435 17.4317 17.1388 16.2193 17.3799C15.0069 17.6211 13.7503 17.4973 12.6082 17.0242C11.4662 16.5512 10.4901 15.7501 9.80331 14.7223C9.11656 13.6945 8.75 12.4861 8.75 11.25C8.75 9.5924 9.40848 8.00269 10.5806 6.83058C11.7527 5.65848 13.3424 5 15 5V5ZM15 2.5C13.2694 2.5 11.5777 3.01318 10.1388 3.97464C8.69983 4.9361 7.57832 6.30267 6.91605 7.90152C6.25379 9.50037 6.08051 11.2597 6.41813 12.957C6.75575 14.6544 7.58911 16.2135 8.81282 17.4372C10.0365 18.6609 11.5956 19.4943 13.293 19.8319C14.9903 20.1695 16.7496 19.9962 18.3485 19.3339C19.9473 18.6717 21.3139 17.5502 22.2754 16.1112C23.2368 14.6723 23.75 12.9806 23.75 11.25C23.75 8.92936 22.8281 6.70376 21.1872 5.06282C19.5462 3.42187 17.3206 2.5 15 2.5V2.5ZM27.5 37.5H25V31.25C25 29.5924 24.3415 28.0027 23.1694 26.8306C21.9973 25.6585 20.4076 25 18.75 25H11.25C9.5924 25 8.00269 25.6585 6.83058 26.8306C5.65848 28.0027 5 29.5924 5 31.25V37.5H2.5V31.25C2.5 28.9294 3.42187 26.7038 5.06282 25.0628C6.70376 23.4219 8.92936 22.5 11.25 22.5H18.75C21.0706 22.5 23.2962 23.4219 24.9372 25.0628C26.5781 26.7038 27.5 28.9294 27.5 31.25V37.5ZM27.5 5H40V7.5H27.5V5ZM27.5 11.25H40V13.75H27.5V11.25ZM27.5 17.5H36.25V20H27.5V17.5Z" fill="#B1AFAF"/>
</svg>
