<svg width="40" height="40" viewBox="0 0 40 40" fill="none" xmlns="http://www.w3.org/2000/svg">
<path d="M20 18.8889C21.6399 18.8911 23.2435 18.4068 24.6081 17.4973C25.9727 16.5879 27.0368 15.2941 27.6659 13.7797C28.2949 12.2653 28.4607 10.5983 28.1421 8.98972C27.8235 7.3811 27.035 5.90313 25.8762 4.74279C24.7174 3.58246 23.2405 2.79191 21.6323 2.47118C20.0241 2.15045 18.3569 2.31395 16.8417 2.94099C15.3264 3.56803 14.0312 4.63043 13.1199 5.99377C12.2086 7.35711 11.7222 8.96012 11.7222 10.6C11.7222 12.7964 12.594 14.903 14.1461 16.4572C15.6981 18.0113 17.8036 18.8859 20 18.8889V18.8889ZM20 4.5222C21.2008 4.52001 22.3753 4.87422 23.3746 5.53999C24.374 6.20576 25.1533 7.15313 25.6139 8.26212C26.0744 9.37111 26.1955 10.5918 25.9617 11.7697C25.728 12.9475 25.15 14.0295 24.3009 14.8786C23.4518 15.7277 22.3698 16.3058 21.1919 16.5395C20.0141 16.7732 18.7934 16.6522 17.6844 16.1916C16.5754 15.7311 15.628 14.9518 14.9622 13.9524C14.2965 12.953 13.9423 11.7786 13.9445 10.5778C13.9474 8.97263 14.5863 7.43408 15.7213 6.29908C16.8563 5.16408 18.3949 4.52514 20 4.5222V4.5222Z" fill="#1CA905"/>
<path d="M6.66665 35.4333V28.6333C8.38206 26.833 10.4534 25.4093 12.7488 24.4529C15.0443 23.4964 17.5137 23.0281 20 23.0778C23.4029 23.032 26.7522 23.9279 29.6778 25.6667L31.1778 23.9889C27.8331 21.8822 23.9526 20.7829 20 20.8222C17.108 20.7486 14.2354 21.3138 11.5869 22.4777C8.93839 23.6415 6.57929 25.3754 4.67776 27.5556C4.52954 27.7465 4.44762 27.9806 4.44442 28.2222V35.4333C4.42948 36.0386 4.65492 36.6251 5.0714 37.0645C5.48789 37.5039 6.06149 37.7603 6.66665 37.7778H20.4333L18.3222 35.5556L6.66665 35.4333Z" fill="#1CA905"/>
<path d="M33.3333 35.4333V35.5555H29.8333L27.8333 37.7778H33.3333C33.9307 37.7604 34.4975 37.51 34.9128 37.0802C35.328 36.6505 35.5587 36.0753 35.5555 35.4778V29.1111L33.3333 31.5889V35.4333Z" fill="#1CA905"/>
<path d="M38.6222 20.6889C38.4025 20.4933 38.1142 20.3928 37.8205 20.4095C37.5268 20.4262 37.2517 20.5586 37.0555 20.7778L24.1444 35.2222L18.3667 29.0111C18.2718 28.9002 18.1561 28.8091 18.026 28.7429C17.8959 28.6768 17.7541 28.6369 17.6086 28.6255C17.4632 28.6142 17.3169 28.6316 17.1781 28.6768C17.0394 28.722 16.9109 28.794 16.8 28.8889C16.6914 28.9877 16.6034 29.1071 16.5412 29.2401C16.479 29.3731 16.4438 29.5172 16.4376 29.6639C16.4314 29.8106 16.4543 29.9571 16.5051 30.0949C16.5558 30.2327 16.6334 30.359 16.7333 30.4667L24.1667 38.4667L38.7111 22.2222C38.8965 22.0044 38.9908 21.7234 38.9742 21.4377C38.9577 21.1521 38.8316 20.8839 38.6222 20.6889V20.6889Z" fill="#1CA905"/>
</svg>
