<svg width="60" height="60" viewBox="0 0 60 60" fill="none" xmlns="http://www.w3.org/2000/svg">
<path d="M5 50V47.5C5 42.8587 6.84374 38.4075 10.1256 35.1256C13.4075 31.8437 17.8587 30 22.5 30V30" stroke="white" stroke-width="3.75" stroke-linecap="round" stroke-linejoin="round"/>
<path d="M39.51 30.7825C39.889 30.3664 40.3508 30.0341 40.8656 29.8067C41.3805 29.5793 41.9371 29.4618 42.5 29.4618C43.0628 29.4618 43.6195 29.5793 44.1343 29.8067C44.6492 30.0341 45.1109 30.3664 45.49 30.7825C46.3025 31.675 47.465 32.1575 48.67 32.1C49.2325 32.0736 49.7943 32.165 50.3194 32.3682C50.8446 32.5715 51.3215 32.8821 51.7197 33.2803C52.1178 33.6785 52.4285 34.1554 52.6317 34.6805C52.835 35.2057 52.9263 35.7675 52.9 36.33C52.8425 37.5325 53.325 38.6975 54.215 39.51C55.9775 41.115 55.9775 43.885 54.215 45.49C53.325 46.3025 52.8425 47.465 52.9 48.67C52.9263 49.2325 52.835 49.7943 52.6317 50.3194C52.4285 50.8446 52.1178 51.3215 51.7197 51.7197C51.3215 52.1178 50.8446 52.4285 50.3194 52.6317C49.7943 52.835 49.2325 52.9263 48.67 52.9C48.0758 52.8719 47.4828 52.9752 46.9332 53.2025C46.3835 53.4297 45.8907 53.7755 45.49 54.215C45.1109 54.631 44.6492 54.9634 44.1343 55.1908C43.6195 55.4182 43.0628 55.5357 42.5 55.5357C41.9371 55.5357 41.3805 55.4182 40.8656 55.1908C40.3508 54.9634 39.889 54.631 39.51 54.215C39.1092 53.7755 38.6164 53.4297 38.0668 53.2025C37.5171 52.9752 36.9241 52.8719 36.33 52.9C35.7675 52.9263 35.2057 52.835 34.6805 52.6317C34.1554 52.4285 33.6785 52.1178 33.2803 51.7197C32.8821 51.3215 32.5715 50.8446 32.3682 50.3194C32.165 49.7943 32.0736 49.2325 32.1 48.67C32.1278 48.0756 32.0241 47.4825 31.7964 46.9328C31.5686 46.3832 31.2224 45.8905 30.7825 45.49C30.3664 45.1109 30.0341 44.6492 29.8067 44.1343C29.5793 43.6195 29.4618 43.0628 29.4618 42.5C29.4618 41.9371 29.5793 41.3805 29.8067 40.8656C30.0341 40.3508 30.3664 39.889 30.7825 39.51C31.675 38.6975 32.1575 37.535 32.1 36.33C32.0736 35.7675 32.165 35.2057 32.3682 34.6805C32.5715 34.1554 32.8821 33.6785 33.2803 33.2803C33.6785 32.8821 34.1554 32.5715 34.6805 32.3682C35.2057 32.165 35.7675 32.0736 36.33 32.1C37.5325 32.1575 38.6975 31.675 39.51 30.7825V30.7825Z" stroke="white" stroke-width="3.75"/>
<path d="M38.41 42.5L41.135 45.225L46.59 39.775L38.41 42.5ZM22.5 30C25.1522 30 27.6957 28.9464 29.5711 27.0711C31.4464 25.1957 32.5 22.6522 32.5 20C32.5 17.3478 31.4464 14.8043 29.5711 12.9289C27.6957 11.0536 25.1522 10 22.5 10C19.8478 10 17.3043 11.0536 15.4289 12.9289C13.5536 14.8043 12.5 17.3478 12.5 20C12.5 22.6522 13.5536 25.1957 15.4289 27.0711C17.3043 28.9464 19.8478 30 22.5 30V30Z" stroke="white" stroke-width="3.75" stroke-linecap="round" stroke-linejoin="round"/>
</svg>
