<svg width="48" height="48" viewBox="0 0 48 48" fill="none" xmlns="http://www.w3.org/2000/svg">
<path d="M24 0C37.26 0 48 10.74 48 24C48 37.26 37.26 48 24 48C10.74 48 0 37.26 0 24C0 10.74 10.74 0 24 0ZM27.39 28.14L28.44 8.76H19.56L20.61 28.14H27.39ZM27.12 38.22C27.84 37.53 28.23 36.57 28.23 35.34C28.23 34.08 27.87 33.12 27.15 32.43C26.43 31.74 25.38 31.38 23.97 31.38C22.56 31.38 21.51 31.74 20.76 32.43C20.01 33.12 19.65 34.08 19.65 35.34C19.65 36.57 20.04 37.53 20.79 38.22C21.57 38.91 22.62 39.24 23.97 39.24C25.32 39.24 26.37 38.91 27.12 38.22V38.22Z" fill="#F5271A"/>
</svg>
